<svg width="370" height="340" viewBox="0 0 370 340" fill="none" xmlns="http://www.w3.org/2000/svg">
<circle cx="5" cy="5" r="5" fill="#DE5252" fill-opacity="0.06"/>
<circle cx="5" cy="35" r="5" fill="#DE5252" fill-opacity="0.06"/>
<circle cx="5" cy="65" r="5" fill="#DE5252" fill-opacity="0.06"/>
<circle cx="5" cy="95" r="5" fill="#DE5252" fill-opacity="0.06"/>
<circle cx="5" cy="125" r="5" fill="#DE5252" fill-opacity="0.06"/>
<circle cx="5" cy="155" r="5" fill="#DE5252" fill-opacity="0.06"/>
<circle cx="5" cy="185" r="5" fill="#DE5252" fill-opacity="0.06"/>
<circle cx="5" cy="215" r="5" fill="#DE5252" fill-opacity="0.06"/>
<circle cx="5" cy="245" r="5" fill="#DE5252" fill-opacity="0.06"/>
<circle cx="5" cy="275" r="5" fill="#DE5252" fill-opacity="0.06"/>
<circle cx="5" cy="305" r="5" fill="#DE5252" fill-opacity="0.06"/>
<circle cx="5" cy="335" r="5" fill="#DE5252" fill-opacity="0.06"/>
<circle cx="35" cy="5" r="5" fill="#DE5252" fill-opacity="0.06"/>
<circle cx="35" cy="35" r="5" fill="#DE5252" fill-opacity="0.06"/>
<circle cx="35" cy="65" r="5" fill="#DE5252" fill-opacity="0.06"/>
<circle cx="35" cy="95" r="5" fill="#DE5252" fill-opacity="0.06"/>
<circle cx="35" cy="125" r="5" fill="#DE5252" fill-opacity="0.06"/>
<circle cx="35" cy="155" r="5" fill="#DE5252" fill-opacity="0.06"/>
<circle cx="35" cy="185" r="5" fill="#DE5252" fill-opacity="0.06"/>
<circle cx="35" cy="215" r="5" fill="#DE5252" fill-opacity="0.06"/>
<circle cx="35" cy="245" r="5" fill="#DE5252" fill-opacity="0.06"/>
<circle cx="35" cy="275" r="5" fill="#DE5252" fill-opacity="0.06"/>
<circle cx="35" cy="305" r="5" fill="#DE5252" fill-opacity="0.06"/>
<circle cx="35" cy="335" r="5" fill="#DE5252" fill-opacity="0.06"/>
<circle cx="65" cy="5" r="5" fill="#DE5252" fill-opacity="0.06"/>
<circle cx="65" cy="35" r="5" fill="#DE5252" fill-opacity="0.06"/>
<circle cx="65" cy="65" r="5" fill="#DE5252" fill-opacity="0.06"/>
<circle cx="65" cy="95" r="5" fill="#DE5252" fill-opacity="0.06"/>
<circle cx="65" cy="125" r="5" fill="#DE5252" fill-opacity="0.06"/>
<circle cx="65" cy="155" r="5" fill="#DE5252" fill-opacity="0.06"/>
<circle cx="65" cy="185" r="5" fill="#DE5252" fill-opacity="0.06"/>
<circle cx="65" cy="215" r="5" fill="#DE5252" fill-opacity="0.06"/>
<circle cx="65" cy="245" r="5" fill="#DE5252" fill-opacity="0.06"/>
<circle cx="65" cy="275" r="5" fill="#DE5252" fill-opacity="0.06"/>
<circle cx="65" cy="305" r="5" fill="#DE5252" fill-opacity="0.06"/>
<circle cx="65" cy="335" r="5" fill="#DE5252" fill-opacity="0.06"/>
<circle cx="95" cy="5" r="5" fill="#DE5252" fill-opacity="0.06"/>
<circle cx="95" cy="35" r="5" fill="#DE5252" fill-opacity="0.06"/>
<circle cx="95" cy="65" r="5" fill="#DE5252" fill-opacity="0.06"/>
<circle cx="95" cy="95" r="5" fill="#DE5252" fill-opacity="0.06"/>
<circle cx="95" cy="125" r="5" fill="#DE5252" fill-opacity="0.06"/>
<circle cx="95" cy="155" r="5" fill="#DE5252" fill-opacity="0.06"/>
<circle cx="95" cy="185" r="5" fill="#DE5252" fill-opacity="0.06"/>
<circle cx="95" cy="215" r="5" fill="#DE5252" fill-opacity="0.06"/>
<circle cx="95" cy="245" r="5" fill="#DE5252" fill-opacity="0.06"/>
<circle cx="95" cy="275" r="5" fill="#DE5252" fill-opacity="0.06"/>
<circle cx="95" cy="305" r="5" fill="#DE5252" fill-opacity="0.06"/>
<circle cx="95" cy="335" r="5" fill="#DE5252" fill-opacity="0.06"/>
<circle cx="125" cy="5" r="5" fill="#DE5252" fill-opacity="0.06"/>
<circle cx="125" cy="35" r="5" fill="#DE5252" fill-opacity="0.06"/>
<circle cx="125" cy="65" r="5" fill="#DE5252" fill-opacity="0.06"/>
<circle cx="125" cy="95" r="5" fill="#DE5252" fill-opacity="0.06"/>
<circle cx="125" cy="125" r="5" fill="#DE5252" fill-opacity="0.06"/>
<circle cx="125" cy="155" r="5" fill="#DE5252" fill-opacity="0.06"/>
<circle cx="125" cy="185" r="5" fill="#DE5252" fill-opacity="0.06"/>
<circle cx="125" cy="215" r="5" fill="#DE5252" fill-opacity="0.06"/>
<circle cx="125" cy="245" r="5" fill="#DE5252" fill-opacity="0.06"/>
<circle cx="125" cy="275" r="5" fill="#DE5252" fill-opacity="0.06"/>
<circle cx="125" cy="305" r="5" fill="#DE5252" fill-opacity="0.06"/>
<circle cx="125" cy="335" r="5" fill="#DE5252" fill-opacity="0.06"/>
<circle cx="155" cy="5" r="5" fill="#DE5252" fill-opacity="0.06"/>
<circle cx="155" cy="35" r="5" fill="#DE5252" fill-opacity="0.06"/>
<circle cx="155" cy="65" r="5" fill="#DE5252" fill-opacity="0.06"/>
<circle cx="155" cy="95" r="5" fill="#DE5252" fill-opacity="0.06"/>
<circle cx="155" cy="125" r="5" fill="#DE5252" fill-opacity="0.06"/>
<circle cx="155" cy="155" r="5" fill="#DE5252" fill-opacity="0.06"/>
<circle cx="155" cy="185" r="5" fill="#DE5252" fill-opacity="0.06"/>
<circle cx="155" cy="215" r="5" fill="#DE5252" fill-opacity="0.06"/>
<circle cx="155" cy="245" r="5" fill="#DE5252" fill-opacity="0.06"/>
<circle cx="155" cy="275" r="5" fill="#DE5252" fill-opacity="0.06"/>
<circle cx="155" cy="305" r="5" fill="#DE5252" fill-opacity="0.06"/>
<circle cx="155" cy="335" r="5" fill="#DE5252" fill-opacity="0.06"/>
<circle cx="185" cy="5" r="5" fill="#DE5252" fill-opacity="0.06"/>
<circle cx="185" cy="35" r="5" fill="#DE5252" fill-opacity="0.06"/>
<circle cx="185" cy="65" r="5" fill="#DE5252" fill-opacity="0.06"/>
<circle cx="185" cy="95" r="5" fill="#DE5252" fill-opacity="0.06"/>
<circle cx="185" cy="125" r="5" fill="#DE5252" fill-opacity="0.06"/>
<circle cx="185" cy="155" r="5" fill="#DE5252" fill-opacity="0.06"/>
<circle cx="185" cy="185" r="5" fill="#DE5252" fill-opacity="0.06"/>
<circle cx="185" cy="215" r="5" fill="#DE5252" fill-opacity="0.06"/>
<circle cx="185" cy="245" r="5" fill="#DE5252" fill-opacity="0.06"/>
<circle cx="185" cy="275" r="5" fill="#DE5252" fill-opacity="0.06"/>
<circle cx="185" cy="305" r="5" fill="#DE5252" fill-opacity="0.06"/>
<circle cx="185" cy="335" r="5" fill="#DE5252" fill-opacity="0.06"/>
<circle cx="215" cy="5" r="5" fill="#DE5252" fill-opacity="0.06"/>
<circle cx="245" cy="5" r="5" fill="#DE5252" fill-opacity="0.06"/>
<circle cx="275" cy="5" r="5" fill="#DE5252" fill-opacity="0.06"/>
<circle cx="305" cy="5" r="5" fill="#DE5252" fill-opacity="0.06"/>
<circle cx="335" cy="5" r="5" fill="#DE5252" fill-opacity="0.06"/>
<circle cx="365" cy="5" r="5" fill="#DE5252" fill-opacity="0.06"/>
<circle cx="215" cy="35" r="5" fill="#DE5252" fill-opacity="0.06"/>
<circle cx="245" cy="35" r="5" fill="#DE5252" fill-opacity="0.06"/>
<circle cx="275" cy="35" r="5" fill="#DE5252" fill-opacity="0.06"/>
<circle cx="305" cy="35" r="5" fill="#DE5252" fill-opacity="0.06"/>
<circle cx="335" cy="35" r="5" fill="#DE5252" fill-opacity="0.06"/>
<circle cx="365" cy="35" r="5" fill="#DE5252" fill-opacity="0.06"/>
<circle cx="215" cy="65" r="5" fill="#DE5252" fill-opacity="0.06"/>
<circle cx="245" cy="65" r="5" fill="#DE5252" fill-opacity="0.06"/>
<circle cx="275" cy="65" r="5" fill="#DE5252" fill-opacity="0.06"/>
<circle cx="305" cy="65" r="5" fill="#DE5252" fill-opacity="0.06"/>
<circle cx="335" cy="65" r="5" fill="#DE5252" fill-opacity="0.06"/>
<circle cx="365" cy="65" r="5" fill="#DE5252" fill-opacity="0.06"/>
<circle cx="215" cy="95" r="5" fill="#DE5252" fill-opacity="0.06"/>
<circle cx="245" cy="95" r="5" fill="#DE5252" fill-opacity="0.06"/>
<circle cx="275" cy="95" r="5" fill="#DE5252" fill-opacity="0.06"/>
<circle cx="305" cy="95" r="5" fill="#DE5252" fill-opacity="0.06"/>
<circle cx="335" cy="95" r="5" fill="#DE5252" fill-opacity="0.06"/>
<circle cx="365" cy="95" r="5" fill="#DE5252" fill-opacity="0.06"/>
<circle cx="215" cy="125" r="5" fill="#DE5252" fill-opacity="0.06"/>
<circle cx="245" cy="125" r="5" fill="#DE5252" fill-opacity="0.06"/>
<circle cx="275" cy="125" r="5" fill="#DE5252" fill-opacity="0.06"/>
<circle cx="305" cy="125" r="5" fill="#DE5252" fill-opacity="0.06"/>
<circle cx="335" cy="125" r="5" fill="#DE5252" fill-opacity="0.06"/>
<circle cx="365" cy="125" r="5" fill="#DE5252" fill-opacity="0.06"/>
<circle cx="215" cy="155" r="5" fill="#DE5252" fill-opacity="0.06"/>
<circle cx="245" cy="155" r="5" fill="#DE5252" fill-opacity="0.06"/>
<circle cx="275" cy="155" r="5" fill="#DE5252" fill-opacity="0.06"/>
<circle cx="305" cy="155" r="5" fill="#DE5252" fill-opacity="0.06"/>
<circle cx="335" cy="155" r="5" fill="#DE5252" fill-opacity="0.06"/>
<circle cx="365" cy="155" r="5" fill="#DE5252" fill-opacity="0.06"/>
<circle cx="215" cy="185" r="5" fill="#DE5252" fill-opacity="0.06"/>
<circle cx="245" cy="185" r="5" fill="#DE5252" fill-opacity="0.06"/>
<circle cx="275" cy="185" r="5" fill="#DE5252" fill-opacity="0.06"/>
<circle cx="305" cy="185" r="5" fill="#DE5252" fill-opacity="0.06"/>
<circle cx="335" cy="185" r="5" fill="#DE5252" fill-opacity="0.06"/>
<circle cx="365" cy="185" r="5" fill="#DE5252" fill-opacity="0.06"/>
<circle cx="215" cy="215" r="5" fill="#DE5252" fill-opacity="0.06"/>
<circle cx="245" cy="215" r="5" fill="#DE5252" fill-opacity="0.06"/>
<circle cx="275" cy="215" r="5" fill="#DE5252" fill-opacity="0.06"/>
<circle cx="305" cy="215" r="5" fill="#DE5252" fill-opacity="0.06"/>
<circle cx="335" cy="215" r="5" fill="#DE5252" fill-opacity="0.06"/>
<circle cx="365" cy="215" r="5" fill="#DE5252" fill-opacity="0.06"/>
<circle cx="215" cy="245" r="5" fill="#DE5252" fill-opacity="0.06"/>
<circle cx="245" cy="245" r="5" fill="#DE5252" fill-opacity="0.06"/>
<circle cx="275" cy="245" r="5" fill="#DE5252" fill-opacity="0.06"/>
<circle cx="305" cy="245" r="5" fill="#DE5252" fill-opacity="0.06"/>
<circle cx="335" cy="245" r="5" fill="#DE5252" fill-opacity="0.06"/>
<circle cx="365" cy="245" r="5" fill="#DE5252" fill-opacity="0.06"/>
<circle cx="215" cy="275" r="5" fill="#DE5252" fill-opacity="0.06"/>
<circle cx="245" cy="275" r="5" fill="#DE5252" fill-opacity="0.06"/>
<circle cx="275" cy="275" r="5" fill="#DE5252" fill-opacity="0.06"/>
<circle cx="305" cy="275" r="5" fill="#DE5252" fill-opacity="0.06"/>
<circle cx="335" cy="275" r="5" fill="#DE5252" fill-opacity="0.06"/>
<circle cx="365" cy="275" r="5" fill="#DE5252" fill-opacity="0.06"/>
<circle cx="215" cy="305" r="5" fill="#DE5252" fill-opacity="0.06"/>
<circle cx="245" cy="305" r="5" fill="#DE5252" fill-opacity="0.06"/>
<circle cx="275" cy="305" r="5" fill="#DE5252" fill-opacity="0.06"/>
<circle cx="305" cy="305" r="5" fill="#DE5252" fill-opacity="0.06"/>
<circle cx="335" cy="305" r="5" fill="#DE5252" fill-opacity="0.06"/>
<circle cx="365" cy="305" r="5" fill="#DE5252" fill-opacity="0.06"/>
<circle cx="215" cy="335" r="5" fill="#DE5252" fill-opacity="0.06"/>
<circle cx="245" cy="335" r="5" fill="#DE5252" fill-opacity="0.06"/>
<circle cx="275" cy="335" r="5" fill="#DE5252" fill-opacity="0.06"/>
<circle cx="305" cy="335" r="5" fill="#DE5252" fill-opacity="0.06"/>
<circle cx="335" cy="335" r="5" fill="#DE5252" fill-opacity="0.06"/>
<circle cx="365" cy="335" r="5" fill="#DE5252" fill-opacity="0.06"/>
</svg>
